Simulation
nRows=28
nColumns=15
endheader
time  TH_x TH_y TH_z SC_y  SC_z  SC_x  AC_y  AC_z  AC_x  GH_y  GH_z  GH_yy  EL_x  PS_y
1.55  0.000000  0.000000  0.000000  -32.310447027153  7.607086251185857  29.295460300923914  52.38188981296999  4.596898553552649  -10.024413743350594  23.19021527972953  55.04498649501057  -20.897695711627854  17.94396310536534  0.000000
1.581  0.000000  0.000000  0.000000  -32.714144574266726  7.9099609475300285  30.108814204206237  52.42098129372955  4.56918744118174  -9.825879116391718  22.98928696100415  55.51318309244282  -20.899405083597674  17.910225505686405  0.000000
1.612  0.000000  0.000000  0.000000  -33.08945765295592  8.174792620340504  30.751141723415895  52.49228414674358  4.544831653759128  -9.578346775366645  22.7607252317402  55.96091973437018  -20.85407206505444  17.884085951678006  0.000000
1.643  0.000000  0.000000  0.000000  -33.42952327073267  8.38373670615203  31.228414958365537  52.58598132906687  4.547243828767263  -9.312672558572576  22.5272384836475  56.363800926337206  -20.79298364088622  17.879278291867145  0.000000
1.674  0.000000  0.000000  0.000000  -33.73929670561869  8.535029206183314  31.571029584503265  52.68892896957943  4.587170061512809  -9.055201904621521  22.324042342279228  56.68326290008792  -20.742028083585982  17.897801129710544  0.000000
1.705  0.000000  0.000000  0.000000  -34.03004479358058  8.638740473854332  31.813782641871516  52.79020124110445  4.657446754488368  -8.820136400648513  22.18586578198372  56.885946463396785  -20.708530174066976  17.930842341948804  0.000000
1.736  0.000000  0.000000  0.000000  -34.302214100260876  8.70563668535541  31.980492868109092  52.88091542514838  4.741332833967961  -8.621729799520763  22.136412124233825  56.95437360204841  -20.69150149100581  17.967921343182738  0.000000
1.767  0.000000  0.000000  0.000000  -34.53623594533725  8.74069405974296  32.077685579763404  52.94943420099354  4.818223511602602  -8.47950193108221  22.183198111453798  56.89117284773039  -20.68789542913828  18.001680720016914  0.000000
1.798  0.000000  0.000000  0.000000  -34.69793898056384  8.744576796015938  32.09863394666624  52.98317392153938  4.866523623329959  -8.41910232548063  22.318982368593907  56.71488615181609  -20.699619250870857  18.02798369300112  0.000000
1.829  0.000000  0.000000  0.000000  -34.75527014043703  8.714680128770565  32.035230172350374  52.97106226564331  4.870240574767138  -8.461917364256657  22.53140196588173  56.44390123001523  -20.734301310796507  18.045314369146105  0.000000
1.8599999999999999  0.000000  0.000000  0.000000  -34.692563877893235  8.644916528190665  31.887780185618915  52.91519351119694  4.822547084005447  -8.617223330024906  22.805174324198127  56.08417246864912  -20.813368956861687  18.053902791940082  0.000000
1.891  0.000000  0.000000  0.000000  -34.514154845241265  8.524962999845428  31.665894042160136  52.83133340892101  4.728183392203777  -8.876827011696234  23.123901128432966  55.62563405657067  -20.966744200375565  18.05650172797984  0.000000
1.922  0.000000  0.000000  0.000000  -34.24146430699341  8.345479927171889  31.378785814490865  52.746471049888434  4.595360074152712  -9.218081174763139  23.470260208115793  55.05594445655353  -21.222054467709253  18.057039275441344  0.000000
1.953  0.000000  0.000000  0.000000  -33.907839848052284  8.106280732193868  31.020532030467  52.68858638793001  4.426640533057114  -9.601889854216823  23.82482831265887  54.37626271993513  -21.579420105980113  18.06013121500692  0.000000
1.984  0.000000  0.000000  0.000000  -33.54873387503902  7.819339600286992  30.56655166198718  52.67419369742598  4.2214425754954865  -9.982919213397148  24.174343787695754  53.60267492728872  -22.004618144430637  18.07206504337693  0.000000
2.015  0.000000  0.000000  0.000000  -33.18980089607349  7.501379782992303  29.98392448033919  52.70071816701099  3.985262652779524  -10.319318633428738  24.513986692136097  52.75451625656343  -22.437967885970775  18.101212025608667  0.000000
2.046  0.000000  0.000000  0.000000  -32.84128794597403  7.165628742154704  29.25295742153116  52.749866489101805  3.7326886226818776  -10.587851663752732  24.848590427672647  51.84494981206042  -22.82533875403262  18.15546269729598  0.000000
2.077  0.000000  0.000000  0.000000  -32.50541602578945  6.81347075053038  28.377993119757235  52.80465201633472  3.4852047029275637  -10.781859603522184  25.181128480256532  50.88047774134187  -23.134284469659192  18.23820576245431  0.000000
2.108  0.000000  0.000000  0.000000  -32.18175465451552  6.438352470255938  27.382796449096148  52.860256587848646  3.2617860626054562  -10.906313090430606  25.50539709827083  49.8674912329394  -23.36156774676756  18.34376635205385  0.000000
2.139  0.000000  0.000000  0.000000  -31.87276273498527  6.036332532394636  26.2920466975528  52.915964328573324  3.076406770163165  -10.965315937584725  25.812470726955375  48.81000817014761  -23.518766803265688  18.461872032349046  0.000000
2.17  0.000000  0.000000  0.000000  -31.583757515506445  5.604681201511019  25.122078742736367  52.971289714312924  2.9311300891324104  -10.966361155312763  26.097247893758347  47.71684113490052  -23.618721104779386  18.585476610253394  0.000000
2.201  0.000000  0.000000  0.000000  -31.316000339481086  5.149770976884716  23.88710657243429  53.0168202050133  2.81506982644527  -10.917511572699356  26.358478925403237  46.59520512141778  -23.670032951018527  18.711326089157613  0.000000
2.232  0.000000  0.000000  0.000000  -31.064030733618342  4.679632532418744  22.598973988305367  53.04171039817432  2.7204829940458053  -10.826679389386788  26.594875819094803  45.44893021334242  -23.67700175589622  18.834794702174545  0.000000
2.263  0.000000  0.000000  0.000000  -30.823227622696585  4.196853947242355  21.269741140423754  53.03929970071501  2.6456732601430564  -10.70143657490777  26.803925513614278  44.28131020163528  -23.638911386818684  18.952074379969673  0.000000
2.294  0.000000  0.000000  0.000000  -30.594966226481354  3.7064611390012683  19.915944011498674  53.009172295095745  2.5896904609502758  -10.546648663727977  26.985760436455774  43.0929986731766  -23.553088498519543  19.05977714558095  0.000000
2.325  0.000000  0.000000  0.000000  -30.38167798121712  3.2120139581360094  18.55886653353897  52.954432225371576  2.5517794878784104  -10.369319449913903  27.14143621151856  41.88360109195295  -23.41467013038989  19.154322494712122  0.000000
2.356  0.000000  0.000000  0.000000  -30.184601937588845  2.717476271120291  17.220198424636756  52.87970632782112  2.5314276237929105  -10.17647602115542  27.275386916275348  40.64886976538832  -23.221086974292714  19.232876525767626  0.000000
2.387  0.000000  0.000000  0.000000  -30.004187789706343  2.2296900714975494  15.916692098619125  52.787480301341574  2.5240540226816663  -9.974216840033286  27.39276644860729  39.38445781169568  -22.973467274691576  19.296391493757387  0.000000
